<?xml version="1.0" encoding="utf-8" ?><svg xmlns="http://www.w3.org/2000/svg" xmlns:xlink="http://www.w3.org/1999/xlink" width="1024" height="1031" viewBox="0 0 1024 1031"><defs><linearGradient id="gradient_0" gradientUnits="userSpaceOnUse" x1="270.28119" y1="964.98755" x2="518.7453" y2="80.020332"><stop offset="0" stop-color="#865312"/><stop offset="1" stop-color="#AC6913"/></linearGradient></defs><path fill="url(#gradient_0)" d="M427.005 83.6474C433.328 82.8028 441.806 77.8078 448.962 77.6576C450.807 77.6188 455.169 75.5913 457.356 75.483C463.629 74.6211 471.107 75.1476 477.417 74.8644C508.678 73.4613 538.174 79.0707 563.842 97.8539C581.717 110.935 582.043 118.083 603.658 127.269C608.62 129.417 612.498 130.982 617.997 131.562C633.465 133.193 657.568 128.493 665.315 146.309C667.095 150.402 667.154 153.584 666.989 157.883C667.018 160.283 666.633 166.573 666.159 168.872C665.632 176.224 664.894 183.922 664.78 191.156C664.514 207.943 663.92 218.931 654.684 233.776C651.112 239.516 647.894 245.026 642.349 249.612C632.593 257.679 620.695 262.461 608.929 266.736C605.039 268.149 601.574 269.809 597.594 270.877C591.244 272.583 583.297 273.331 577.618 276.709C571.459 280.832 569.089 287.353 567.712 294.384C566.643 299.956 565.979 305.598 565.723 311.265C565.145 321.94 564.384 384.071 568.355 391.465C568.908 402.395 571.654 412.239 573.538 422.998L573.523 423.281C573.753 424.908 574.042 427.563 574.491 429.066C575.513 437.241 578.885 458.4 581.086 465.831C584.354 484.23 589.418 502.599 593.116 520.802L593.17 521.211C595.81 540.321 609.054 576.284 596.026 593.738C592.49 598.475 587.481 599.631 582.952 602.811C580.099 603.702 578.654 604.25 575.942 605.426C557.027 613.07 523.272 607.517 503.566 609.823C482.523 616.417 465.616 646.819 447.576 660.036C445.164 661.804 443.365 662.961 440.37 662.534C433.103 658.329 419.861 619.508 418.09 610.773C413.894 590.077 413.22 560.419 418.633 540.133C419.163 536.803 420.365 532.742 418.567 530.069C414.182 532.078 412.641 543.951 411.116 549.066C401.026 582.906 400.112 616.619 415.931 648.923C422.061 662.334 438.254 684.732 433.817 699.208C432.118 704.751 425.274 710.649 419.325 712.94C394.992 722.314 360.149 730.116 334.767 722.92C331.003 721.853 323.421 715.79 320.499 713.517C310.448 705.85 300.883 697.567 291.859 688.714C288.176 685.074 270.898 666.008 267.57 665.798C265.507 669.189 268.504 672.755 270.544 676.161C283.04 697.025 300.972 713.717 318.202 730.345C319.447 731.547 318.337 746.814 317.76 749.07C313.924 773.871 307.25 798.297 296.424 820.982C291.63 830.981 286.324 841.171 280.415 850.56C260.569 879.241 232.015 903.868 198.792 915.397C191.205 918.029 183.452 919.881 175.75 921.758C168.673 923.6 160.204 925.241 152.92 925.4C126.95 927.218 77.0266 921.401 78.6482 886.45C77.5268 879.454 87.6025 865.497 95.4672 864.466C128.961 860.074 168.582 849.448 180.489 811.931C194.513 767.746 164.318 713.936 159.986 668.181C157.315 639.977 158.229 614.701 159.508 585.496C159.999 583.222 160.378 578.29 160.637 575.781C162.056 567.973 162.555 559.946 163.995 552.327C168.954 526.078 177.12 501.415 188.287 477.175C189.614 474.295 191.434 470.55 192.423 467.619L192.579 467.14C195.645 461.735 199.224 453.865 202.114 448.049C204.895 442.451 208.113 436.786 210.767 431.355C221.673 413.246 231.895 394.633 243.782 377.098C250.115 367.756 255.859 357.847 262.686 348.88C269.026 337.524 281.698 319.554 289.059 308.284C298.338 294.079 304.455 282.161 312.882 267.991C318.932 259.352 330.925 231.396 334.979 220.794C335.489 219.462 336.182 214.995 335.59 213.56C331.823 204.424 321.073 199.136 315.977 189.192C311.276 180.021 310.633 165.65 313.219 156.205C316.75 143.31 334.825 133.57 347.196 131.241C349.939 130.486 359.879 129.959 361.678 127.873C372.12 115.765 382.223 105.062 396.767 97.3695C403.18 92.9118 419.375 86.1715 427.005 83.6474ZM588.907 177.278C587.584 181.244 584.63 189.532 582.787 193.242C574.623 204.709 561.861 214.998 548.606 219.623C530.103 228.086 501.859 227.426 485.707 241.178C477.506 248.161 466.315 261.463 461.427 271.053C444.009 305.225 437.118 344.382 438.883 382.55C439.454 394.904 437.96 409.915 439.663 422.062C444.417 455.979 451.341 491.216 466.37 522.243C472.092 534.138 474.51 542.525 483.519 552.878C486.229 546.097 491.353 542.041 494.129 536.238C497.167 529.889 502.873 520.435 505.336 514.349C510.312 502.052 516.18 483.972 518.687 470.94C521.78 454.858 523.982 436.67 525.63 420.287C526.481 411.819 527.96 401.304 528.379 392.745C530.406 351.295 522.024 301.992 541.556 263.849C545.029 257.773 554.876 248.61 561.988 247.834C572.564 246.681 580.215 246.328 590.663 243.067C605.024 238.585 624.055 232.839 631.531 218.278C635.078 211.371 641.986 197.547 640.289 189.416C638.589 184.117 628.817 182.285 623.088 179.514C619.112 176.787 608.918 170.634 606.43 167.177C599.367 157.363 590.055 154.602 589.323 169.914L588.907 177.278ZM363.928 196.07C361.343 186.33 359.829 177.158 363.293 167.471C366.588 164.502 371.529 161.753 373.688 157.804C369.581 152.201 347.985 155.945 342.236 159.959L342.009 160.115C328.975 174.699 351.051 191.724 363.928 196.07Z"/><path fill="#493E2A" d="M601.648 156.456C601.785 153.05 603.812 150.607 606.403 148.507C624.656 133.71 661.716 126.386 666.989 157.883C667.018 160.283 666.633 166.573 666.159 168.872C660.889 171.776 662.055 174.36 662.172 180.115C656.448 186.582 647.202 193.759 641.972 182.769C636.301 182.019 628.811 180.689 623.559 178.396L623.088 179.514C619.112 176.787 608.918 170.634 606.43 167.177C599.367 157.363 590.055 154.602 589.323 169.914C588.423 166.155 588.631 162.856 588.99 159.074C593.973 156.554 596.247 154.796 601.648 156.456Z"/><path fill="#D7C6AE" d="M588.99 159.074C593.973 156.554 596.247 154.796 601.648 156.456C605.98 168.226 615.547 170.661 623.559 178.396L623.088 179.514C619.112 176.787 608.918 170.634 606.43 167.177C599.367 157.363 590.055 154.602 589.323 169.914C588.423 166.155 588.631 162.856 588.99 159.074Z"/><path fill="#BE893F" d="M503.566 609.823C503.498 609.506 503.43 609.189 503.362 608.871C503.999 607.837 504.434 607.168 506.02 606.995C516.215 605.882 528.633 606.381 538.813 606.394C546.683 606.359 554.549 606.06 562.398 605.496C566.098 605.239 573.318 603.966 575.942 605.426C557.027 613.07 523.272 607.517 503.566 609.823Z"/><path fill="#9B6629" d="M152.92 925.4C153.513 924.619 154.216 923.586 155.074 923.091C159.311 920.648 171.237 920.621 175.75 921.758C168.673 923.6 160.204 925.241 152.92 925.4Z"/><path fill="#BE893F" d="M418.567 530.069L419.898 529.484C423.694 531.07 422.877 539.535 418.633 540.133C419.163 536.803 420.365 532.742 418.567 530.069Z"/><path fill="#FBFBF6" d="M515.544 126.564C516.849 126.576 518.86 126.771 520.217 126.864C523.511 129.376 526.176 132.146 529.111 135.046C529.229 144.544 528.37 140.588 523.01 147.288C520.629 150.264 518.943 150.331 515.218 150.594C511.477 149.122 499.538 136.572 500.881 132.388C504.328 130.759 505.576 130.263 508.391 127.704L508.959 127.18C510.929 126.902 513.514 126.748 515.544 126.564Z"/><path fill="#9B6629" d="M342.009 160.115C342.189 159.57 342.727 157.682 342.997 157.366C349.593 149.653 367.016 151.537 374.465 155.783C374.352 157.243 374.583 156.585 373.688 157.804C369.581 152.201 347.985 155.945 342.236 159.959L342.009 160.115Z"/><defs><linearGradient id="gradient_1" gradientUnits="userSpaceOnUse" x1="839.13629" y1="905.68573" x2="894.95544" y2="390.77515"><stop offset="0" stop-color="#714913"/><stop offset="1" stop-color="#AE6914"/></linearGradient></defs><path fill="url(#gradient_1)" d="M811.717 396.057L812.076 394.414C813.518 393.685 814.908 393.723 816.575 393.739C841.291 393.979 866.147 393.699 890.838 393.699C898.243 393.699 922.403 392.514 928.352 393.807L929.105 395.043C929.647 401.114 929.408 409.366 929.403 415.662L929.423 447.204L929.48 551.3L929.615 788.231C929.611 796.738 930.845 848.265 929.299 852.756C916.781 859.745 904.113 867.628 891.389 874.116C874.243 882.858 855.24 890.851 837.313 897.911C832.356 899.863 819.906 904.396 814.953 905.212C811.948 904.381 812.262 904.685 811.68 901.852C812.222 889.048 811.716 870.26 811.634 857.292L811.475 784.496L811.375 500.755C811.537 466.859 810.642 429.62 811.717 396.057Z"/><path fill="#BE893F" d="M811.717 396.057C812.233 398.496 813.396 401.741 813.647 403.982C814.481 411.41 814.209 419.294 814.219 426.774L814.302 459.394C815.057 522.017 815.089 584.647 814.4 647.271L814.46 812.866C814.464 840.438 814.383 868.013 814.142 895.584C814.116 898.637 813.719 899.611 811.68 901.852C812.222 889.048 811.716 870.26 811.634 857.292L811.475 784.496L811.375 500.755C811.537 466.859 810.642 429.62 811.717 396.057Z"/><defs><linearGradient id="gradient_2" gradientUnits="userSpaceOnUse" x1="719.65094" y1="937.25726" x2="691.08124" y2="504.29401"><stop offset="0" stop-color="#674413"/><stop offset="1" stop-color="#A46312"/></linearGradient></defs><path fill="url(#gradient_2)" d="M648.511 942.745C648.099 942.407 647.545 941.973 647.501 941.394C646.865 933.092 647.064 923.421 647.051 915.181L646.979 852.976L647.36 585.441L647.214 537.373C647.17 532.161 646.616 508.22 648.157 504.792C650.51 503.333 703.426 503.842 710.791 503.912C726.651 504.065 748.105 503.451 764.221 504.006L764.307 704.18C764.317 747.033 765.335 792.735 764.288 835.307C765.041 844.384 764.483 864.089 764.357 874.15C764.177 888.511 765.322 908.013 764.52 921.767C751.535 924.505 738.833 928.478 725.738 930.709C723.362 931.332 721.307 933.306 718.886 933.754C714.811 934.51 710.399 934.004 706.335 934.769C687.743 938.271 667.44 942.912 648.511 942.745Z"/><path fill="#9B6629" d="M648.511 942.745C648.099 942.407 647.545 941.973 647.501 941.394C646.865 933.092 647.064 923.421 647.051 915.181L646.979 852.976L647.36 585.441L647.214 537.373C647.17 532.161 646.616 508.22 648.157 504.792C650.51 503.333 703.426 503.842 710.791 503.912C726.651 504.065 748.105 503.451 764.221 504.006L764.307 704.18C764.317 747.033 765.335 792.735 764.288 835.307C762.987 831.888 763.43 822.088 763.434 817.928L763.502 779.757C763.512 773.79 763.887 763.534 763.058 758.014C762.551 761.674 762.719 770.108 762.708 774.06L762.755 807.452C762.749 811.049 763.517 812.176 763.181 816.553L762.925 816.499C761.743 805.132 762.201 785.34 762.164 773.28C761.872 744.238 762.055 715.194 762.713 686.158C762.84 676.568 762.307 666.328 762.23 656.607L761.95 574.364C762.024 558.448 762.325 542.373 762.173 526.459C762.135 522.529 763.184 509.839 762.874 507.493C759.366 505.254 751.247 506.086 747.113 506.53C742.102 507.068 735.377 506.076 730.247 506.264C711.739 506.941 693.225 506.753 674.691 506.574C667.276 506.503 658.639 505.4 651.127 505.934C649.967 506.016 649.757 506.6 649.174 507.395C649.938 613.748 650.105 720.103 649.673 826.457L649.686 897.725C649.686 905.821 650.467 937.133 648.511 942.745Z"/><defs><linearGradient id="gradient_3" gradientUnits="userSpaceOnUse" x1="572.56885" y1="952.758" x2="517.58459" y2="633.08643"><stop offset="0" stop-color="#1C5B5B"/><stop offset="1" stop-color="#348D72"/></linearGradient></defs><path fill="url(#gradient_3)" d="M486.539 648.695C489.199 646.33 506.466 632.39 508.889 631.823C519.53 629.333 536.081 630.177 547.413 629.565C566.762 628.521 587.65 625.67 606.941 626.804L607.313 633.124L607.187 832.847L607.214 899.382C607.206 912.378 606.807 927.885 607.656 940.648C607.69 943.475 608.664 946.73 606.881 948.802C604.086 949.8 601.298 949.129 598.058 949.725C574.301 954.094 550.066 954.027 525.97 954.155C513.481 954.222 498.96 954.654 486.485 953.757C485.532 936.158 486.339 911.651 486.35 893.365L486.481 774.439L486.376 693.485C486.315 681.877 485.575 659.395 486.539 648.695Z"/><defs><linearGradient id="gradient_4" gradientUnits="userSpaceOnUse" x1="391.57718" y1="956.2561" x2="374.05301" y2="736.95813"><stop offset="0" stop-color="#1D595A"/><stop offset="1" stop-color="#2F866F"/></linearGradient></defs><path fill="url(#gradient_4)" d="M325.168 947.501C324.157 946.932 323.089 946.537 322.965 945.087C321.825 931.77 322.121 915.888 322.023 902.545C321.702 882.7 321.627 862.852 321.799 843.004C321.988 828.641 321.089 820.977 325.682 807.197C331.418 789.991 336.08 772.091 339.385 754.264C339.866 751.47 340.787 748.4 342.399 746.03C346.813 743.573 360.707 745.178 366.339 744.519C376.616 743.315 387.654 742.826 397.769 740.734C404.423 739.348 411 737.614 417.473 735.539C423.732 733.519 434.332 727.952 440.402 728.794C442.05 730.326 442.446 733.698 442.429 735.869C442.268 755.862 442.191 775.85 442.212 795.845L442.505 954.574C429.654 954.532 416.804 954.342 403.957 954.005C400.586 953.926 389.736 953.315 387.198 953.534C372.937 952.653 358.159 951.918 343.941 950.886C339.006 950.528 332.267 948.104 325.168 947.501Z"/><path fill="#266F68" d="M235.252 933.489C232.72 932.616 226.905 932.188 225.722 930.11C226.649 925.835 234.247 923.926 237.716 921.879C252.792 912.983 265.731 900.941 277.547 888.134C280.586 884.84 282.913 884.329 287.308 884.54C286.663 891.171 286.911 904.611 286.956 911.778C287.011 920.638 286.592 933.811 287.226 942.331C280.516 941.958 272.845 940.067 266.071 938.845L235.252 933.489Z"/></svg>